<?xml version="1.0" encoding="UTF-8"?>
<svg version="1.1" xmlns="http://www.w3.org/2000/svg" width="512" height="512">
<path d="M0 0 C3.26526807 1.40755245 6.30013997 3.15788373 9.375 4.9375 C11.34512918 6.04515041 13.31656475 7.15047929 15.2890625 8.25390625 C16.3605957 8.85605957 17.43212891 9.45821289 18.53613281 10.07861328 C24.21408847 13.22814183 29.95548857 16.2565148 35.69622803 19.28964233 C39.14320001 21.11126495 42.58729083 22.93831434 46.03125 24.765625 C47.04697586 25.30445564 47.04697586 25.30445564 48.08322144 25.85417175 C55.54368724 29.81475421 62.97941631 33.82094165 70.41308594 37.83154297 C78.26758288 42.06899681 86.13150283 46.28861923 94 50.5 C104.07570464 55.89331024 114.14221608 61.30340559 124.20214844 66.72607422 C131.01864651 70.39896134 137.84213839 74.05857081 144.67016602 77.70996094 C149.32967927 80.20194364 153.98625092 82.69940206 158.64208984 85.19824219 C160.86834302 86.39278548 163.09522459 87.58615841 165.32275391 88.77832031 C168.40565975 90.43006021 171.48461499 92.08892735 174.5625 93.75 C175.47870117 94.23936035 176.39490234 94.7287207 177.33886719 95.23291016 C178.17708008 95.68714355 179.01529297 96.14137695 179.87890625 96.609375 C180.6066626 97.00092773 181.33441895 97.39248047 182.08422852 97.79589844 C185.5307124 99.96208405 185.5307124 99.96208405 187 102 C187.29923427 104.86561658 187.41318976 107.51495771 187.39440918 110.38218689 C187.40050028 111.247641 187.40659139 112.11309511 187.41286707 113.00477511 C187.42956759 115.91599435 187.42471124 118.82677959 187.41992188 121.73803711 C187.4272581 123.82063758 187.43584301 125.90323398 187.44558716 127.98582458 C187.46785852 133.65105991 187.47073104 139.31615004 187.46883965 144.98142314 C187.46872021 149.70581886 187.4772734 154.43018353 187.48561716 159.15457064 C187.50487137 170.2973226 187.50772765 181.43999963 187.50097656 192.58276367 C187.49433336 204.08960534 187.51720692 215.59612664 187.55429029 227.10290331 C187.58494594 236.97217791 187.59635184 246.84134924 187.59245348 256.71067053 C187.59038176 262.60962505 187.59593043 268.50833034 187.62034607 274.40723991 C187.64254238 279.95344786 187.64079462 285.49913347 187.62041855 291.0453434 C187.61699591 293.08355486 187.62215115 295.121801 187.63640213 297.15996552 C187.65448643 299.93753629 187.64192681 302.71331459 187.62145996 305.49082947 C187.63397781 306.30201278 187.64649566 307.1131961 187.65939283 307.94896072 C187.5976051 311.84607652 187.40022534 313.58916955 184.63149261 316.43126774 C181.87686664 318.07340445 179.13710119 319.68154429 176.30078125 321.1796875 C175.18767578 321.77136719 174.07457031 322.36304688 172.92773438 322.97265625 C171.72266977 323.60679653 170.51759128 324.24091041 169.3125 324.875 C168.05372659 325.54238462 166.79526794 326.21036324 165.53710938 326.87890625 C162.95099383 328.25279937 160.36378005 329.6245908 157.77587891 330.99511719 C152.16860645 333.96827892 146.58488797 336.98506511 141 340 C126.75756811 347.67633393 112.49353493 355.31226398 98.22924805 362.94787598 C84.07917569 370.52248718 69.93364614 378.10525866 55.80615234 385.72192383 C50.13633764 388.77745325 44.46230267 391.82480748 38.78125 394.859375 C38.17785797 395.18187729 37.57446594 395.50437958 36.95278931 395.83665466 C33.95179253 397.44060975 30.94998812 399.04301642 27.94677734 400.64282227 C22.74239215 403.42303058 17.56008314 406.22562079 12.4453125 409.16796875 C11.2068457 409.87711426 11.2068457 409.87711426 9.94335938 410.60058594 C8.45617787 411.45818976 6.97506019 412.32644742 5.50195312 413.20800781 C1.44759649 415.54581843 -1.34302649 416.84246757 -6 416 C-9.26550362 414.5930838 -12.30022161 412.84215818 -15.375 411.0625 C-17.33989781 409.95741344 -19.30612758 408.85469298 -21.2734375 407.75390625 C-22.34432617 407.1520752 -23.41521484 406.55024414 -24.51855469 405.93017578 C-30.2769806 402.73760108 -36.10139732 399.6708187 -41.92364502 396.59664917 C-51.649896 391.45962532 -61.3574571 386.29289755 -71 381 C-79.87540513 376.12951578 -88.80513619 371.36621354 -97.75 366.625 C-108.65500186 360.84466389 -119.54251521 355.03417832 -130.40429688 349.17285156 C-137.14951207 345.53327193 -143.90241147 341.90838977 -150.66137695 338.29443359 C-155.3239564 335.80124051 -159.98336566 333.30214649 -164.64208984 330.80175781 C-166.86834302 329.60721452 -169.09522459 328.41384159 -171.32275391 327.22167969 C-174.40565975 325.56993979 -177.48461499 323.91107265 -180.5625 322.25 C-181.47870117 321.76063965 -182.39490234 321.2712793 -183.33886719 320.76708984 C-184.59618652 320.08573975 -184.59618652 320.08573975 -185.87890625 319.390625 C-186.97054077 318.8032959 -186.97054077 318.8032959 -188.08422852 318.20410156 C-191.5307124 316.03791595 -191.5307124 316.03791595 -193 314 C-193.29923427 311.13438342 -193.41318976 308.48504229 -193.39440918 305.61781311 C-193.40050028 304.752359 -193.40659139 303.88690489 -193.41286707 302.99522489 C-193.42956759 300.08400565 -193.42471124 297.17322041 -193.41992188 294.26196289 C-193.4272581 292.17936242 -193.43584301 290.09676602 -193.44558716 288.01417542 C-193.46785852 282.34894009 -193.47073104 276.68384996 -193.46883965 271.01857686 C-193.46872021 266.29418114 -193.4772734 261.56981647 -193.48561716 256.84542936 C-193.50487137 245.7026774 -193.50772765 234.56000037 -193.50097656 223.41723633 C-193.49433336 211.91039466 -193.51720692 200.40387336 -193.55429029 188.89709669 C-193.58494594 179.02782209 -193.59635184 169.15865076 -193.59245348 159.28932947 C-193.59038176 153.39037495 -193.59593043 147.49166966 -193.62034607 141.59276009 C-193.64254238 136.04655214 -193.64079462 130.50086653 -193.62041855 124.9546566 C-193.61699591 122.91644514 -193.62215115 120.878199 -193.63640213 118.84003448 C-193.65448643 116.06246371 -193.64192681 113.28668541 -193.62145996 110.50917053 C-193.63397781 109.69798722 -193.64649566 108.8868039 -193.65939283 108.05103928 C-193.59757827 104.15223133 -193.40010332 102.41052892 -190.62950897 99.56774044 C-187.89816633 97.93928571 -185.18308228 96.3418022 -182.37109375 94.85546875 C-181.26813965 94.26886475 -180.16518555 93.68226074 -179.02880859 93.07788086 C-177.83172542 92.4477165 -176.634622 91.8175906 -175.4375 91.1875 C-174.18541537 90.52342237 -172.93363022 89.85877979 -171.68212891 89.19360352 C-169.08237995 87.81240947 -166.48136269 86.43364917 -163.87939453 85.05664062 C-157.86629677 81.87199043 -151.87141166 78.65343143 -145.875 75.4375 C-144.71669678 74.81705811 -143.55839355 74.19661621 -142.36499023 73.55737305 C-134.57097575 69.38210529 -126.78372301 65.1944174 -119 61 C-104.75693546 53.32483509 -90.49353827 45.68773781 -76.22924805 38.05212402 C-67.4845731 33.37105165 -58.74127379 28.68742145 -50 24 C-48.85660156 23.38705078 -47.71320313 22.77410156 -46.53515625 22.14257812 C-43.14760757 20.32576002 -39.76121007 18.50681154 -36.375 16.6875 C-35.3039502 16.11362549 -34.23290039 15.53975098 -33.12939453 14.94848633 C-28.24658046 12.32407775 -23.38896603 9.67044708 -18.5859375 6.90234375 C-17.349646 6.19428589 -17.349646 6.19428589 -16.08837891 5.47192383 C-14.58661526 4.60689668 -13.0908749 3.73127881 -11.60302734 2.8425293 C-7.51703279 0.49130612 -4.69179179 -0.85681336 0 0 Z M-10.71875 15.4453125 C-11.39976776 15.80669815 -12.08078552 16.1680838 -12.78244019 16.54042053 C-15.0238068 17.73123262 -17.26192204 18.92802007 -19.5 20.125 C-21.05664883 20.95382225 -22.61345352 21.78235183 -24.17041016 22.6105957 C-35.34904736 28.5624929 -46.50488923 34.55691072 -57.6484375 40.57421875 C-64.42381286 44.23199302 -71.21139281 47.86686953 -78 51.5 C-87.00667889 56.32098502 -96.00703523 61.15347976 -105 66 C-113.95214311 70.82409716 -122.91069493 75.63604009 -131.875 80.4375 C-133.01888184 81.05069092 -134.16276367 81.66388184 -135.34130859 82.2956543 C-140.8651786 85.25561629 -146.39160751 88.21042636 -151.92611694 91.1504364 C-154.53231224 92.53531017 -157.13709797 93.92282297 -159.74176025 95.31057739 C-160.98889609 95.97407952 -162.23673142 96.63626867 -163.48529053 97.29708862 C-165.21327217 98.21173593 -166.93873051 99.13114557 -168.6640625 100.05078125 C-170.14060303 100.83449097 -170.14060303 100.83449097 -171.64697266 101.6340332 C-174.08704241 102.91602304 -174.08704241 102.91602304 -176 105 C-175.31301025 105.3810791 -174.62602051 105.7621582 -173.91821289 106.15478516 C-155.51368209 116.36613445 -137.13681373 126.62576538 -118.78308105 136.9282074 C-117.04061572 137.90613546 -115.29789728 138.8836125 -113.55517578 139.86108398 C-111.35908536 141.09286241 -109.16342637 142.3254104 -106.96826172 143.55883789 C-105.98229004 144.11176514 -104.99631836 144.66469238 -103.98046875 145.234375 C-102.67952271 145.96479004 -102.67952271 145.96479004 -101.35229492 146.70996094 C-100.5760376 147.13567383 -99.79978027 147.56138672 -99 148 C-98.32791504 148.42772705 -97.65583008 148.8554541 -96.96337891 149.29614258 C-94.98434296 150.22942279 -94.98434296 150.22942279 -92.89135742 149.33178711 C-92.13701416 148.9013208 -91.3826709 148.47085449 -90.60546875 148.02734375 C-89.7446167 147.54668457 -88.88376465 147.06602539 -87.99682617 146.57080078 C-87.06974854 146.03181152 -86.1426709 145.49282227 -85.1875 144.9375 C-84.21337158 144.38819824 -83.23924316 143.83889648 -82.2355957 143.27294922 C-80.17784802 142.1103259 -78.1241305 140.94054458 -76.07421875 139.76416016 C-73.1615132 138.09268538 -70.2395441 136.43917662 -67.3125 134.79296875 C-63.51674729 132.656868 -59.7253194 130.51341828 -55.9375 128.36328125 C-47.62148394 123.64671414 -39.27825781 118.97895425 -30.9296875 114.3203125 C-27.15179626 112.21089828 -23.38641061 110.08201215 -19.6328125 107.9296875 C-18.81272705 107.46328857 -17.9926416 106.99688965 -17.14770508 106.51635742 C-15.64599154 105.66180156 -14.1480774 104.80051537 -12.6550293 103.9309082 C-8.80868625 101.75388271 -5.52185557 100.01780258 -1 100 C1.68449373 101.08579523 3.95216363 102.19140413 6.4375 103.625 C7.16775391 104.02887939 7.89800781 104.43275879 8.65039062 104.84887695 C11.11012295 106.21570781 13.55503084 107.6069525 16 109 C17.78204066 110.002212 19.56460818 111.00348766 21.34765625 112.00390625 C25.20859314 114.1753666 29.06320536 116.35759199 32.9140625 118.546875 C36.98581499 120.86046026 41.06351227 123.16287551 45.1484375 125.453125 C46.17372559 126.02812744 47.19901367 126.60312988 48.25537109 127.19555664 C50.33053685 128.354291 52.40898975 129.50715851 54.49072266 130.65405273 C59.41790712 133.37785926 64.28864417 136.14398539 69.05453491 139.14356995 C70.73141485 140.19537392 72.42158823 141.22588673 74.11181641 142.25610352 C76.23616442 143.55413959 78.33922853 144.88788974 80.41552734 146.26147461 C83.32724193 148.01040199 85.67994347 149.27142562 89 150 C93.23624405 148.81899781 96.42385852 146.49953602 100 144 C101.82468797 142.98382916 103.66353704 141.99267247 105.515625 141.02734375 C118.44609277 134.06469791 131.27597583 126.94489403 144.04003906 119.68212891 C149.33351193 116.67387849 154.63614301 113.68182686 159.9375 110.6875 C161.88415225 109.58730623 163.83077049 108.48705227 165.77734375 107.38671875 C167.18489583 106.59114583 168.59244792 105.79557292 170 105 C166.61290278 102.26426763 162.9307583 100.26538075 159.0859375 98.26171875 C158.40774963 97.90457794 157.72956177 97.54743713 157.03082275 97.17947388 C155.57318662 96.41224577 154.11474458 95.64654722 152.65557861 94.88223267 C148.78225384 92.85310392 144.91500086 90.81245407 141.046875 88.7734375 C139.88262497 88.16031456 139.88262497 88.16031456 138.69485474 87.5348053 C131.98425717 83.99861022 125.29904401 80.41727867 118.625 76.8125 C116.53387044 75.6835636 114.44272459 74.55465738 112.3515625 73.42578125 C111.31676758 72.86713379 110.28197266 72.30848633 109.21582031 71.73291016 C103.48334052 68.64384687 97.74129772 65.57263082 92 62.5 C81.92136232 57.10522998 71.85232546 51.69291993 61.7890625 46.26953125 C52.70716086 41.3767392 43.61550442 36.50225923 34.51806641 31.63842773 C28.50974612 28.42429261 22.51008766 25.1956673 16.5234375 21.94140625 C15.3112463 21.28376498 14.0990075 20.62621144 12.88671875 19.96875 C10.58795433 18.72092237 8.2910028 17.46974778 5.99609375 16.21484375 C4.97386719 15.66054688 3.95164062 15.10625 2.8984375 14.53515625 C1.54758057 13.79857788 1.54758057 13.79857788 0.16943359 13.04711914 C-4.11744441 10.97797445 -6.8654401 13.37739993 -10.71875 15.4453125 Z M-9.29296875 113.82421875 C-10.38625488 114.43402588 -11.47954102 115.04383301 -12.60595703 115.67211914 C-13.79987042 116.34379593 -14.99371637 117.01559261 -16.1875 117.6875 C-17.41762722 118.37588922 -18.64793527 119.06395539 -19.87841797 119.75170898 C-28.39771267 124.51831818 -36.90213626 129.31206697 -45.390625 134.13330078 C-50.52563717 137.04822814 -55.67610202 139.93157375 -60.84765625 142.78125 C-61.98831543 143.41216553 -63.12897461 144.04308105 -64.30419922 144.69311523 C-66.50977373 145.91176757 -68.71830486 147.1250888 -70.93017578 148.33227539 C-71.92645996 148.88391357 -72.92274414 149.43555176 -73.94921875 150.00390625 C-74.82924561 150.48674072 -75.70927246 150.9695752 -76.6159668 151.46704102 C-79.10383456 153.06676674 -80.9916678 154.83854666 -83 157 C-82.36312256 157.35602295 -81.72624512 157.7120459 -81.07006836 158.07885742 C-68.60043541 165.05128118 -56.1410226 172.04060543 -43.70922852 179.08032227 C-35.20903043 183.89027283 -26.6870438 188.66096342 -18.15820312 193.41992188 C-17.16498047 193.97486328 -16.17175781 194.52980469 -15.1484375 195.1015625 C-13.83625244 195.83366943 -13.83625244 195.83366943 -12.49755859 196.58056641 C-10.75522907 197.57078183 -9.03891463 198.60758271 -7.3449707 199.6784668 C-5.06113065 201.21111637 -5.06113065 201.21111637 -2.33203125 201.04296875 C2.62227781 199.49220613 6.84899577 196.93179055 11.3125 194.3125 C13.38372608 193.11911714 15.45535453 191.92643239 17.52734375 190.734375 C19.13005127 189.8072168 19.13005127 189.8072168 20.76513672 188.86132812 C25.94264299 185.88221055 31.15907015 182.97364008 36.375 180.0625 C38.44792105 178.90104948 40.52083767 177.73959108 42.59375 176.578125 C46.47748288 174.40525586 50.36604234 172.24150445 54.26083374 170.08851624 C56.00892054 169.12172447 57.75569006 168.15255213 59.50244141 167.18334961 C61.70553251 165.96123529 63.91084754 164.7431191 66.11865234 163.52954102 C67.10816895 162.97967529 68.09768555 162.42980957 69.1171875 161.86328125 C70.42598877 161.14072144 70.42598877 161.14072144 71.76123047 160.40356445 C73.83257837 159.10496259 75.36699254 157.80551765 77 156 C70.60944163 151.91735484 64.06604852 148.18120992 57.4375 144.5 C55.19900263 143.25168955 52.96072615 142.00298294 50.72265625 140.75390625 C49.59746582 140.12629395 48.47227539 139.49868164 47.31298828 138.85205078 C42.32450352 136.06335178 37.34894661 133.25202379 32.375 130.4375 C31.45041992 129.91518799 30.52583984 129.39287598 29.57324219 128.85473633 C24.54818545 126.01450584 19.5304571 123.16196839 14.51953125 120.296875 C13.46008301 119.69302979 12.40063477 119.08918457 11.30908203 118.46704102 C9.26506869 117.30179675 7.22299544 116.13314109 5.18310547 114.96069336 C4.27061035 114.44128174 3.35811523 113.92187012 2.41796875 113.38671875 C1.61125732 112.92483154 0.8045459 112.46294434 -0.02661133 111.98706055 C-3.84802976 110.07564217 -5.77039451 111.85130919 -9.29296875 113.82421875 Z M-182 114 C-182 141.72 -182 169.44 -182 198 C-178.61721544 196.64688618 -175.66257649 195.36135473 -172.5078125 193.63671875 C-171.65018311 193.1689502 -170.79255371 192.70118164 -169.90893555 192.21923828 C-168.99023682 191.71376465 -168.07153809 191.20829102 -167.125 190.6875 C-166.1553833 190.15624512 -165.1857666 189.62499023 -164.18676758 189.07763672 C-155.41870274 184.2593985 -146.70895371 179.34008745 -138.0078125 174.40234375 C-131.3732649 170.6392177 -124.71884529 166.91186674 -118.0625 163.1875 C-116.9593042 162.5702002 -115.8561084 161.95290039 -114.71948242 161.31689453 C-112.14653176 159.87755337 -109.57338842 158.43855831 -107 157 C-109.35540436 154.39577176 -111.81663666 152.82948563 -114.8828125 151.13671875 C-115.87249023 150.58677246 -116.86216797 150.03682617 -117.88183594 149.47021484 C-118.95208008 148.88191895 -120.02232422 148.29362305 -121.125 147.6875 C-123.40370253 146.42327927 -125.68234674 145.15895341 -127.9609375 143.89453125 C-129.14152242 143.24155611 -130.32218665 142.58872434 -131.50292969 141.93603516 C-136.92808341 138.93258158 -142.33951979 135.90478418 -147.75 132.875 C-148.7723877 132.30338135 -149.79477539 131.7317627 -150.84814453 131.14282227 C-158.83723959 126.66981741 -166.79053012 122.13593507 -174.71777344 117.55419922 C-175.5327832 117.0851416 -176.34779297 116.61608398 -177.1875 116.1328125 C-177.90292969 115.71918457 -178.61835938 115.30555664 -179.35546875 114.87939453 C-180.83615783 113.92140786 -180.83615783 113.92140786 -182 114 Z M170.3125 116.5703125 C169.31653809 117.12984619 168.32057617 117.68937988 167.29443359 118.26586914 C166.20727051 118.87938232 165.12010742 119.49289551 164 120.125 C162.28742575 121.08803094 160.57484968 122.05105866 158.8621521 123.01387024 C157.08126563 124.01531983 155.30087524 125.01764753 153.52050781 126.02001953 C149.17323396 128.46642307 144.81910303 130.90052891 140.46484375 133.33447266 C137.37882155 135.06036276 134.29467814 136.78956838 131.2109375 138.51953125 C126.92926031 140.92143114 122.64184419 143.31272599 118.3515625 145.69921875 C116.23426742 146.88262004 114.11707604 148.06620689 112 149.25 C111.00790527 149.79922119 110.01581055 150.34844238 108.99365234 150.91430664 C108.08824707 151.4221167 107.1828418 151.92992676 106.25 152.453125 C105.45078125 152.89817383 104.6515625 153.34322266 103.828125 153.80175781 C101.85123051 154.87845422 101.85123051 154.87845422 101 157 C101.54599854 157.29543701 102.09199707 157.59087402 102.65454102 157.89526367 C113.25510233 163.63783108 123.82434017 169.4292442 134.3125 175.375 C135.24505615 175.90351563 136.1776123 176.43203125 137.13842773 176.9765625 C139.07070027 178.07199307 141.00290949 179.16753532 142.93505859 180.26318359 C148.49363426 183.41307266 154.05712591 186.55407838 159.625 189.6875 C161.2169519 190.58831299 161.2169519 190.58831299 162.84106445 191.50732422 C163.83452881 192.06564941 164.82799316 192.62397461 165.8515625 193.19921875 C166.72635254 193.69252686 167.60114258 194.18583496 168.50244141 194.6940918 C171.35923238 196.2414224 171.35923238 196.2414224 176 198 C176 170.28 176 142.56 176 114 C173.97986936 114 172.00842034 115.61496468 170.3125 116.5703125 Z M-101.4453125 165.3515625 C-102.79375244 166.12294556 -102.79375244 166.12294556 -104.16943359 166.90991211 C-105.14477051 167.47589111 -106.12010742 168.04187012 -107.125 168.625 C-109.22362291 169.82740853 -111.32259305 171.02921119 -113.421875 172.23046875 C-114.50919922 172.8548584 -115.59652344 173.47924805 -116.71679688 174.12255859 C-121.91659447 177.09597051 -127.14550308 180.01673954 -132.375 182.9375 C-134.45055869 184.09889069 -136.52607918 185.26034963 -138.6015625 186.421875 C-142.47041887 188.58575069 -146.33971167 190.748844 -150.20925903 192.91148376 C-151.94124405 193.87961689 -153.67301585 194.84813146 -155.40478516 195.81665039 C-157.58376516 197.03526984 -159.763109 198.25323903 -161.94287109 199.47045898 C-163.41747803 200.29525757 -163.41747803 200.29525757 -164.921875 201.13671875 C-165.78393555 201.61842529 -166.64599609 202.10013184 -167.53417969 202.59643555 C-168.34790039 203.05961182 -169.16162109 203.52278809 -170 204 C-170.92973633 204.51280518 -171.85947266 205.02561035 -172.81738281 205.55395508 C-173.53764648 206.0311499 -174.25791016 206.50834473 -175 207 C-175 207.66 -175 208.32 -175 209 C-173.95380493 209.57947388 -173.95380493 209.57947388 -172.88647461 210.1706543 C-159.76671184 217.44056784 -146.66042354 224.73133649 -133.61206055 232.12890625 C-128.45526289 235.05116675 -123.29156782 237.96054612 -118.1171875 240.8515625 C-116.39943115 241.81147095 -116.39943115 241.81147095 -114.64697266 242.79077148 C-112.42588806 244.03093292 -110.20423164 245.27007095 -107.98193359 246.50805664 C-106.98242676 247.06614014 -105.98291992 247.62422363 -104.953125 248.19921875 C-104.06786133 248.69252686 -103.18259766 249.18583496 -102.27050781 249.6940918 C-100.47280884 250.72805866 -98.72553853 251.84964098 -97 253 C-92.9391848 252.66590913 -89.92714951 251.05877618 -86.4140625 249.078125 C-85.33044434 248.47154053 -84.24682617 247.86495605 -83.13037109 247.23999023 C-81.9618324 246.57680402 -80.79337747 245.9134702 -79.625 245.25 C-78.40869696 244.56589867 -77.19205814 243.882394 -75.97509766 243.19946289 C-72.89200071 241.46709889 -69.81348139 239.7267857 -66.73657227 237.98345947 C-64.15425234 236.5210343 -61.56920337 235.06345449 -58.984375 233.60546875 C-55.26249469 231.50451589 -51.54276824 229.39981041 -47.82421875 227.29296875 C-41.28896589 223.59353472 -34.73937277 219.91989294 -28.1875 216.25 C-27.10065918 215.6408374 -26.01381836 215.0316748 -24.89404297 214.40405273 C-23.89131348 213.84274658 -22.88858398 213.28144043 -21.85546875 212.703125 C-20.96496826 212.20458008 -20.07446777 211.70603516 -19.15698242 211.19238281 C-17.78596095 210.43448028 -16.40117555 209.70058777 -15 209 C-15 208.34 -15 207.68 -15 207 C-15.61705811 206.6690332 -16.23411621 206.33806641 -16.86987305 205.99707031 C-28.60107714 199.69619625 -40.28088805 193.32813724 -51.81958008 186.68066406 C-60.44613735 181.71951703 -69.14673752 176.89435436 -77.8527832 172.07470703 C-78.94034912 171.47255371 -80.02791504 170.87040039 -81.1484375 170.25 C-82.16905273 169.68667969 -83.18966797 169.12335938 -84.24121094 168.54296875 C-86.55158692 167.25079387 -88.82851325 165.91847915 -91.1015625 164.5625 C-95.4869611 162.19840372 -97.3633173 162.99409561 -101.4453125 165.3515625 Z M82.171875 166.04296875 C81.59514038 166.36265121 81.01840576 166.68233368 80.42419434 167.01170349 C78.52930659 168.06416779 76.63966729 169.12569541 74.75 170.1875 C73.42963065 170.92349653 72.10898983 171.65900623 70.78808594 172.39404297 C66.85341462 174.58661308 62.92566679 176.79135651 59 179 C57.93910156 179.5966748 56.87820313 180.19334961 55.78515625 180.80810547 C51.1036155 183.44496931 46.42728616 186.09089142 41.75390625 188.7421875 C35.24392688 192.43318964 28.71677241 196.09327137 22.1875 199.75 C21.10049805 200.35924316 20.01349609 200.96848633 18.89355469 201.59619141 C17.38970215 202.43802979 17.38970215 202.43802979 15.85546875 203.296875 C14.96496826 203.79541992 14.07446777 204.29396484 13.15698242 204.80761719 C11.78596095 205.56551972 10.40117555 206.29941223 9 207 C9 207.66 9 208.32 9 209 C9.90987671 209.48859497 9.90987671 209.48859497 10.83813477 209.98706055 C24.00456871 217.06604074 37.09250849 224.26376533 50.08984375 231.6484375 C57.59505021 235.91209564 65.13096618 240.12073336 72.66577148 244.33178711 C73.65262939 244.88358643 74.6394873 245.43538574 75.65625 246.00390625 C76.58308594 246.51840332 77.50992188 247.03290039 78.46484375 247.56298828 C80.03653855 248.45387769 81.59467786 249.36976415 83.12890625 250.32373047 C86.26798326 252.43543697 86.26798326 252.43543697 89.88745117 252.7512207 C92.34999537 251.87554192 94.53594909 250.76662891 96.83203125 249.515625 C97.78327881 248.99943604 98.73452637 248.48324707 99.71459961 247.95141602 C100.73690674 247.38994873 101.75921387 246.82848145 102.8125 246.25 C103.88056885 245.66726318 104.9486377 245.08452637 106.04907227 244.48413086 C115.10805926 239.52571689 124.10383263 234.45831361 133.08203125 229.35546875 C140.64658078 225.05792386 148.24409037 220.81933144 155.84155273 216.58032227 C156.83485596 216.02530029 157.82815918 215.47027832 158.8515625 214.8984375 C159.72635254 214.41036621 160.60114258 213.92229492 161.50244141 213.41943359 C162.73873291 212.71681396 162.73873291 212.71681396 164 212 C164.93118652 211.48646973 165.86237305 210.97293945 166.82177734 210.44384766 C167.89999756 209.72914307 167.89999756 209.72914307 169 209 C169 208.34 169 207.68 169 207 C168.06039429 206.4738208 168.06039429 206.4738208 167.10180664 205.93701172 C157.28531901 200.43977865 147.46883138 194.94254557 137.65234375 189.4453125 C136.63342041 188.87474121 135.61449707 188.30416992 134.56469727 187.71630859 C132.51952383 186.57095933 130.47443936 185.4254512 128.42944336 184.27978516 C123.53733989 181.53934238 118.64434449 178.80053265 113.74822998 176.06726074 C111.99925749 175.09079579 110.25060318 174.113761 108.50195312 173.13671875 C106.29547831 171.90395145 104.08846966 170.67213902 101.88085938 169.44140625 C100.89150391 168.88839844 99.90214844 168.33539063 98.8828125 167.765625 C98.01027832 167.27868164 97.13774414 166.79173828 96.23876953 166.29003906 C94.45209906 165.26051161 92.71574302 164.14382868 91 163 C87.21594174 163 85.47395224 164.20014282 82.171875 166.04296875 Z M-9.98046875 217.5703125 C-11.45966797 218.40949219 -11.45966797 218.40949219 -12.96875 219.265625 C-14.0309375 219.87921875 -15.093125 220.4928125 -16.1875 221.125 C-18.46211217 222.41949473 -20.73685536 223.71375929 -23.01171875 225.0078125 C-24.18678389 225.67984224 -25.36175133 226.35204283 -26.53662109 227.02441406 C-31.8393764 230.04921992 -37.17016402 233.02326819 -42.5 236 C-44.5547491 237.15223391 -46.60943618 238.30457842 -48.6640625 239.45703125 C-52.52082445 241.61761614 -56.38283966 243.76822767 -60.25177002 245.9069519 C-62.00140595 246.87453487 -63.7497353 247.84447925 -65.49804688 248.81445312 C-67.70279453 250.03732936 -69.9097355 251.2562619 -72.11914062 252.47070312 C-73.10849609 253.02048828 -74.09785156 253.57027344 -75.1171875 254.13671875 C-75.98972168 254.61842529 -76.86225586 255.10013184 -77.76123047 255.59643555 C-79.83257837 256.89503741 -81.36699254 258.19448235 -83 260 C-76.64793625 264.0559551 -70.14900528 267.77683967 -63.5625 271.4375 C-61.32941552 272.68357303 -59.09634295 273.92966739 -56.86328125 275.17578125 C-55.72584473 275.8095166 -54.5884082 276.44325195 -53.41650391 277.09619141 C-49.06889407 279.51884836 -44.72329326 281.94506644 -40.37988281 284.37524414 C-38.30130301 285.53727078 -36.22123296 286.69663594 -34.13964844 287.85327148 C-29.03461731 290.69825436 -23.97509706 293.59496464 -18.97265625 296.6171875 C-18.0177832 297.18679199 -17.06291016 297.75639648 -16.07910156 298.34326172 C-14.28291138 299.41888355 -12.4963549 300.51082131 -10.72167969 301.62158203 C-6.16688661 304.42403249 -6.16688661 304.42403249 -0.9921875 304.63671875 C-0.00476563 304.09660156 0.98265625 303.55648437 2 303 C2.65750244 302.64760254 3.31500488 302.29520508 3.99243164 301.93212891 C6.41895232 300.60385567 8.80240392 299.21374962 11.1875 297.8125 C13.06811494 296.722412 14.94967252 295.63394906 16.83203125 294.546875 C17.83057129 293.97001953 18.82911133 293.39316406 19.85791016 292.79882812 C25.3327251 289.66452847 30.85518597 286.61661831 36.375 283.5625 C38.65510123 282.29715122 40.93504924 281.03152632 43.21484375 279.765625 C46.60183822 277.88520378 49.98939804 276.00586394 53.37939453 274.13085938 C56.56910953 272.36459525 59.75381826 270.58961028 62.9375 268.8125 C63.89640137 268.28406494 64.85530273 267.75562988 65.84326172 267.21118164 C67.17188232 266.4666272 67.17188232 266.4666272 68.52734375 265.70703125 C69.29812256 265.2788208 70.06890137 264.85061035 70.86303711 264.40942383 C73.22995247 262.84833593 75.0625466 261.06172315 77 259 C59.29569582 248.9718465 41.55213975 239.01513135 23.79074097 229.08851624 C22.05875595 228.12038311 20.32698415 227.15186854 18.59521484 226.18334961 C16.41623484 224.96473016 14.236891 223.74676097 12.05712891 222.52954102 C11.07405762 221.97967529 10.09098633 221.42980957 9.078125 220.86328125 C8.21606445 220.38157471 7.35400391 219.89986816 6.46582031 219.40356445 C4.75602776 218.43033699 3.07916707 217.3978159 1.43261719 216.32104492 C-3.06934569 213.87623148 -5.87174057 215.21385288 -9.98046875 217.5703125 Z M-182 218 C-182 245.72 -182 273.44 -182 302 C-174.65474936 298.32737468 -167.50700518 294.68101258 -160.4375 290.5625 C-152.63067578 286.05424263 -144.77551711 281.64117121 -136.88372803 277.28369141 C-126.79968561 271.71515825 -116.79926293 266.05683086 -107 260 C-109.88982778 257.73723008 -112.84245256 255.8809322 -116.05078125 254.1015625 C-117.04754883 253.54645996 -118.04431641 252.99135742 -119.07128906 252.41943359 C-120.14088867 251.82727051 -121.21048828 251.23510742 -122.3125 250.625 C-124.58485267 249.3597651 -126.8569833 248.09413137 -129.12890625 246.828125 C-130.27891113 246.18810547 -131.42891602 245.54808594 -132.61376953 244.88867188 C-137.66943264 242.06887304 -142.71107675 239.22457704 -147.75 236.375 C-148.67941406 235.850271 -149.60882813 235.32554199 -150.56640625 234.78491211 C-155.40182745 232.05109763 -160.22528205 229.29806965 -165.03515625 226.51953125 C-166.00549805 225.96023926 -166.97583984 225.40094727 -167.97558594 224.82470703 C-169.82869429 223.75526257 -171.67970642 222.6821753 -173.52832031 221.60498047 C-174.76146973 220.89365967 -174.76146973 220.89365967 -176.01953125 220.16796875 C-176.74245361 219.74797607 -177.46537598 219.3279834 -178.21020508 218.89526367 C-179.9645821 217.85088001 -179.9645821 217.85088001 -182 218 Z M169.65234375 220.3515625 C168.75016113 220.86581787 167.84797852 221.38007324 166.91845703 221.90991211 C165.93474121 222.47589111 164.95102539 223.04187012 163.9375 223.625 C161.82972114 224.82733856 159.72163792 226.02914369 157.61328125 227.23046875 C156.51967285 227.8548584 155.42606445 228.47924805 154.29931641 229.12255859 C149.08929432 232.08726703 143.85765479 235.01297951 138.625 237.9375 C136.55597607 239.09502793 134.48696579 240.25258026 132.41796875 241.41015625 C131.37817871 241.99168457 130.33838867 242.57321289 129.26708984 243.17236328 C123.48937702 246.40446298 117.71356531 249.63995727 111.9375 252.875 C109.82162254 254.05991005 107.70573789 255.24480725 105.58984375 256.4296875 C104.70159912 256.92710449 103.81335449 257.42452148 102.89819336 257.93701172 C102.27178955 258.28779785 101.64538574 258.63858398 101 259 C103.46556132 261.76676969 106.15096686 263.34544895 109.390625 265.1171875 C110.48101074 265.71748779 111.57139648 266.31778809 112.69482422 266.9362793 C113.27391541 267.25204926 113.85300659 267.56781921 114.449646 267.89315796 C116.89656771 269.22761252 119.33716294 270.57344749 121.77816772 271.91868591 C123.0295059 272.60818274 124.28115631 273.29711318 125.53311157 273.98548889 C131.33715842 277.17819344 137.11104153 280.42298809 142.875 283.6875 C144.25631104 284.46879272 144.25631104 284.46879272 145.66552734 285.26586914 C150.47266492 287.98867183 155.27111934 290.72612572 160.0625 293.4765625 C161.03848145 294.03641846 162.01446289 294.59627441 163.02001953 295.1730957 C164.88679097 296.24504458 166.75240177 297.31901787 168.61669922 298.39526367 C169.44186035 298.86939697 170.26702148 299.34353027 171.1171875 299.83203125 C171.84534668 300.25202393 172.57350586 300.6720166 173.32373047 301.10473633 C174.83028612 302.07851693 174.83028612 302.07851693 176 302 C176 274.28 176 246.56 176 218 C173.31851699 218 171.97996355 219.01616297 169.65234375 220.3515625 Z M-100.7578125 268.60546875 C-101.76392578 269.17007812 -102.77003906 269.7346875 -103.80664062 270.31640625 C-105.44922852 271.24259766 -105.44922852 271.24259766 -107.125 272.1875 C-108.81786133 273.13882812 -108.81786133 273.13882812 -110.54492188 274.109375 C-118.80373081 278.75174897 -127.0507367 283.41509828 -135.29541016 288.08251953 C-143.73727525 292.85920213 -152.19917035 297.59979077 -160.66601562 302.33203125 C-165.79128673 305.19763025 -170.90829915 308.07513252 -176 311 C-173.23734159 313.17201293 -170.47810505 314.89641624 -167.3515625 316.49609375 C-166.44092041 316.9655542 -165.53027832 317.43501465 -164.59204102 317.91870117 C-163.12335571 318.67050659 -163.12335571 318.67050659 -161.625 319.4375 C-153.88811294 323.43469978 -146.19344776 327.4915596 -138.5625 331.6875 C-129.41912498 336.70971601 -120.21853295 341.61773465 -111 346.5 C-101.11263233 351.73729476 -91.25375129 357.01820074 -81.4453125 362.40234375 C-73.33585117 366.84209335 -65.16960586 371.17234195 -57 375.5 C-47.61756827 380.47014189 -38.25253966 385.46668374 -28.9375 390.5625 C-28.06222656 391.0383252 -27.18695313 391.51415039 -26.28515625 392.00439453 C-22.34059401 394.15190524 -18.41880435 396.32603125 -14.53515625 398.58203125 C-13.84752197 398.97253662 -13.1598877 399.36304199 -12.45141602 399.76538086 C-10.65755018 400.78541342 -8.87505253 401.82537065 -7.09375 402.8671875 C-3.12035957 404.32209056 -1.88213888 403.54816414 2 402 C4.30407291 400.87445901 6.55852685 399.7245594 8.8125 398.5078125 C9.45413086 398.1661203 10.09576172 397.8244281 10.75683594 397.47238159 C12.84037842 396.36117356 14.9202205 395.24323272 17 394.125 C18.45686503 393.34604321 19.91389786 392.56740018 21.37109375 391.7890625 C30.12416781 387.10784835 38.84889382 382.37580808 47.55078125 377.60009766 C56.35678105 372.7779974 65.23080642 368.0858176 74.10253906 363.38623047 C82.42961175 358.9740088 90.73873309 354.53470001 99 350 C107.87542107 345.12950703 116.80550985 340.36694143 125.75 335.625 C136.13227458 330.11776099 146.51422324 324.61010579 156.875 319.0625 C157.97424805 318.47742676 159.07349609 317.89235352 160.20605469 317.28955078 C161.20797852 316.75185059 162.20990234 316.21415039 163.2421875 315.66015625 C164.1172998 315.19230713 164.99241211 314.72445801 165.89404297 314.24243164 C168.11785115 313.04863027 168.11785115 313.04863027 170 311 C169.31301025 310.6189209 168.62602051 310.2378418 167.91821289 309.84521484 C130.25561623 288.9489511 130.25561623 288.9489511 111.53515625 278.33984375 C110.49004883 277.74768066 109.44494141 277.15551758 108.36816406 276.54541016 C106.38879852 275.42288406 104.41023058 274.29894991 102.43261719 273.17333984 C101.54348633 272.66883301 100.65435547 272.16432617 99.73828125 271.64453125 C98.96524658 271.20471924 98.19221191 270.76490723 97.39575195 270.31176758 C96.60515381 269.87888428 95.81455566 269.44600098 95 269 C94.03707031 268.39446289 93.07414062 267.78892578 92.08203125 267.16503906 C89.04430421 265.65693685 89.04430421 265.65693685 86.0534668 266.90600586 C85.02906494 267.50292236 84.00466309 268.09983887 82.94921875 268.71484375 C82.0985508 269.19670135 82.0985508 269.19670135 81.23069763 269.68829346 C79.36934135 270.74941703 77.52938027 271.84297766 75.6875 272.9375 C74.3885699 273.68572059 73.08825592 274.43154347 71.78662109 275.17504883 C69.12849466 276.69714763 66.47784573 278.23115755 63.83251953 279.77539062 C58.30848331 282.99341003 52.71320864 286.08279163 47.125 289.1875 C39.98324418 293.18620011 32.85581784 297.20992722 25.7355957 301.24682617 C22.85365193 302.87880431 19.96827701 304.50455162 17.08203125 306.12890625 C14.00199113 307.86246205 10.9363181 309.615856 7.88671875 311.40234375 C6.74847656 312.05332031 5.61023438 312.70429688 4.4375 313.375 C3.50808594 313.91898437 2.57867187 314.46296875 1.62109375 315.0234375 C-2.41639565 316.5277182 -5.66776091 315.58305382 -9.55102539 313.88354492 C-10.39141357 313.42052979 -11.23180176 312.95751465 -12.09765625 312.48046875 C-13.53008667 311.69857178 -13.53008667 311.69857178 -14.99145508 310.90087891 C-16.0048999 310.33546387 -17.01834473 309.77004883 -18.0625 309.1875 C-19.12815186 308.60145996 -20.19380371 308.01541992 -21.29174805 307.41162109 C-28.85083796 303.23926852 -36.35821986 298.97720338 -43.84082031 294.66943359 C-52.27267745 289.81929238 -60.7766742 285.10137126 -69.28588867 280.38891602 C-76.4110441 276.44238331 -83.52324911 272.47498896 -90.59692383 268.43676758 C-95.52392313 265.64180777 -95.84927766 265.84480421 -100.7578125 268.60546875 Z " fill="#7ec0ee" transform="translate(259,48)"/>
</svg>
