<?xml version="1.0" encoding="UTF-8"?>
<svg version="1.1" xmlns="http://www.w3.org/2000/svg" width="512" height="512">
<path d="M0 0 C2.0625 2.6875 2.0625 2.6875 3 6 C1.97102271 12.76596529 -1.46900197 16.17650535 -6.23874187 20.86794758 C-6.99703217 21.63350508 -7.75532247 22.39906258 -8.53659126 23.1878188 C-11.09237034 25.76191225 -13.66566196 28.31775162 -16.23918152 30.87409973 C-18.08901619 32.72969295 -19.93775906 34.58637512 -21.78549939 36.44405383 C-25.81070782 40.48732915 -29.84514677 44.52120672 -33.88576317 48.5490818 C-39.8942115 54.53863493 -45.88832031 60.54238622 -51.87967342 66.54903359 C-62.58004145 77.27574814 -73.29469893 87.98809877 -84.01546089 98.6944265 C-93.3972503 108.06364616 -102.77438882 117.43748939 -112.1469059 126.81598473 C-112.76822225 127.437683 -113.3895386 128.05938128 -114.02968272 128.6999189 C-116.55170225 131.22349507 -119.07370409 133.74708892 -121.59567684 136.27071184 C-145.26164846 159.95198404 -168.9421875 183.61864133 -192.6292574 207.27880791 C-213.68119648 228.30701834 -234.72017184 249.34811682 -255.74829102 270.40014648 C-279.3647826 294.04340182 -302.98931942 317.67856996 -326.62692434 341.30071849 C-329.14597057 343.81816109 -331.6649971 346.33562342 -334.18401527 348.8530941 C-334.80428488 349.47296832 -335.42455448 350.09284254 -336.06362013 350.73150082 C-345.43688104 360.09907047 -354.80394991 369.47280185 -364.16805077 378.84952736 C-374.81376002 389.50951737 -385.46832922 400.16056119 -396.13475301 410.79982588 C-402.10670652 416.75707512 -408.07166596 422.72113177 -414.02684598 428.69514973 C-418.46848973 433.14929392 -422.92302997 437.59032032 -427.38284007 442.02627095 C-429.18941121 443.82723567 -430.9917367 445.63247089 -432.78945889 447.44226871 C-435.22568119 449.89360213 -437.67664764 452.32916176 -440.13205242 454.76125813 C-440.83344273 455.47435427 -441.53483305 456.18745041 -442.25747761 456.92215553 C-446.33518838 460.92239006 -449.29039218 463.13167501 -455 464 C-458.3125 463.0625 -458.3125 463.0625 -461 461 C-462.5625 457.6875 -462.5625 457.6875 -463 454 C-460.87092785 448.22665401 -456.92913067 444.50922597 -452.64824104 440.27071762 C-451.88988608 439.50800234 -451.13153112 438.74528705 -450.35019571 437.95945919 C-447.79556711 435.39384249 -445.23034268 432.83908909 -442.66506958 430.28411865 C-440.81749655 428.4330905 -438.97057827 426.58140863 -437.12426078 424.72912812 C-433.10293793 420.69696528 -429.07605692 416.67042091 -425.04549026 412.64749908 C-419.0520153 406.66536123 -413.06712711 400.67468757 -407.08390916 394.68229305 C-396.39852653 383.98110288 -385.70456179 373.28852168 -375.00694373 362.59956437 C-365.64601956 353.24618174 -356.28788228 343.89002207 -346.93252182 334.53107452 C-346.31237031 333.91069385 -345.69221879 333.29031318 -345.05327481 332.6511331 C-342.53599966 330.13292397 -340.01873513 327.61470424 -337.50148805 325.09646705 C-313.88055411 301.46635296 -290.25087428 277.84500188 -266.61728053 254.22755023 C-245.61038326 233.23489188 -224.61125764 212.23448915 -203.61865234 191.22753906 C-180.04333187 167.6361629 -156.46318259 144.04963068 -132.87519538 120.47091889 C-130.36182394 117.95850963 -127.84846432 115.44608853 -125.33510971 112.93366241 C-124.71623491 112.31502485 -124.09736011 111.69638728 -123.45973153 111.05900312 C-114.10499419 101.70768141 -104.75397011 92.35265735 -95.40472794 82.99584198 C-84.77736951 72.35991808 -74.14469092 61.72934545 -63.50490083 51.1058571 C-57.5468049 45.15658839 -51.59289111 39.20320486 -45.64485765 33.2438754 C-41.21062642 28.80215088 -36.76864278 24.36825872 -32.32350706 19.93744853 C-30.52076418 18.13807275 -28.72057849 16.33613085 -26.92314114 14.53145525 C-24.49006075 12.08932552 -22.04803738 9.65651191 -19.60344124 7.22591782 C-18.54631002 6.15825135 -18.54631002 6.15825135 -17.46782261 5.06901586 C-11.79985842 -0.53372149 -7.99406343 -3.55291708 0 0 Z " fill="#abb2bf" transform="translate(486,25)"/>
<path d="M0 0 C2.0625 2.6875 2.0625 2.6875 3 6 C1.92415656 12.152042 -0.52538576 15.24318856 -4.81756115 19.44676685 C-5.42220944 20.05868235 -6.02685773 20.67059785 -6.6498287 21.30105624 C-8.6830098 23.35251341 -10.73355877 25.38566691 -12.7844696 27.41938782 C-14.25894717 28.89962546 -15.73233282 30.38095145 -17.20471698 31.86327142 C-21.2572184 35.93668436 -25.32521589 39.99430838 -29.39590824 44.04953158 C-33.7819803 48.4243119 -38.15366586 52.81342763 -42.52720642 57.20072937 C-50.60303024 65.29752621 -58.69020124 73.38284504 -66.78335034 81.46231595 C-74.25965878 88.92605058 -81.73130783 96.39441029 -89.19834328 103.8674221 C-89.94108147 104.61073318 -89.94108147 104.61073318 -90.69882447 105.36906065 C-92.70879178 107.38058463 -94.71874142 109.39212627 -96.72866198 111.40369697 C-115.58643938 130.27677214 -134.45877309 149.1352314 -153.33764868 167.98719919 C-170.11325859 184.73908076 -186.8758953 201.5038406 -203.62768555 218.27954102 C-222.44504439 237.12366837 -241.2704492 255.95969708 -260.10892326 274.78271741 C-262.11682405 276.78901459 -264.12470514 278.79533148 -266.1325779 280.80165672 C-266.62698081 281.29566425 -267.12138372 281.78967177 -267.63076853 282.29864922 C-275.09925679 289.76144818 -282.56155293 297.23040121 -290.02087975 304.70235634 C-298.50183361 313.19759637 -306.99187443 321.68361281 -315.49330201 330.15837488 C-319.83254899 334.48446036 -324.16766313 338.81448574 -328.49208069 343.15539932 C-332.4483785 347.1265605 -336.41596856 351.08605702 -340.39300988 355.03644075 C-341.8321506 356.46998131 -343.26706202 357.90778242 -344.69734796 359.35015777 C-346.63802899 361.30598321 -348.59337599 363.24585727 -350.55323315 365.18243885 C-351.38632546 366.03308991 -351.38632546 366.03308991 -352.23624793 366.90092584 C-355.86780094 370.44644583 -358.8590091 372.10096496 -364 373 C-367.3125 372.0625 -367.3125 372.0625 -370 370 C-371.5625 366.6875 -371.5625 366.6875 -372 363 C-369.99515131 357.84010714 -366.92758199 354.50196519 -363.06942177 350.69189835 C-362.16235233 349.77828843 -362.16235233 349.77828843 -361.23695827 348.84622175 C-359.204956 346.80325466 -357.16242179 344.77115726 -355.11978149 342.73883057 C-353.64756558 341.26315861 -352.17600439 339.78683321 -350.7050432 338.30991054 C-346.65786135 334.25018208 -342.60134717 330.19989163 -338.54325104 326.15107703 C-334.169688 321.78428906 -329.80475077 317.40889372 -325.43870544 313.03459167 C-317.37789515 304.96119791 -309.31025934 296.89467284 -301.23905428 288.83167491 C-293.78361258 281.38377713 -286.33096196 273.93310064 -278.88108444 266.47963715 C-278.38709048 265.98541403 -277.89309653 265.49119092 -277.38413305 264.98199135 C-275.37891012 262.97583442 -273.37369779 260.96966689 -271.36850291 258.96348192 C-252.55576521 240.14156581 -233.73428692 221.32841179 -214.90888926 202.51915896 C-198.17832293 185.80283181 -181.45553229 169.07876323 -164.73925781 152.34814453 C-145.96306977 133.55589859 -127.18205204 114.76850133 -108.39319646 95.98891997 C-106.39097045 93.98765614 -104.38875627 91.98638047 -102.38654709 89.98509979 C-101.64703493 89.24594348 -101.64703493 89.24594348 -100.89258313 88.49185472 C-93.44261888 81.04530514 -85.99636743 73.59505646 -78.55189896 66.143013 C-70.08930058 57.67184668 -61.62123682 49.20618623 -53.14635183 40.74730811 C-48.82000579 36.42886352 -44.49612488 32.10802349 -40.1786747 27.78068352 C-36.22998071 23.82308115 -32.27448448 19.87241557 -28.31333725 15.92727873 C-26.8780229 14.49532853 -25.4452584 13.06081722 -24.01525207 11.62356618 C-22.07773243 9.67698181 -20.13129334 7.73978352 -18.18226051 5.80473709 C-17.6235018 5.23895488 -17.06474309 4.67317267 -16.4890523 4.09024554 C-11.02087064 -1.2992895 -7.31524438 -3.25121973 0 0 Z " fill="#abb2bf" transform="translate(486,116)"/>
<path d="M0 0 C2.75171298 1.90503206 3.71801879 3.2856476 4.9375 6.375 C5.05071938 11.13021409 2.4909158 14.65456448 -0.65363526 18.03198409 C-1.73644188 19.13160458 -2.82747373 20.22316391 -3.92499161 21.30810165 C-4.83116225 22.22171157 -4.83116225 22.22171157 -5.75563937 23.15377825 C-7.78562474 25.1967365 -9.82613668 27.22884124 -11.86676025 29.26116943 C-13.33754777 30.73684501 -14.80768366 32.2131703 -16.27722239 33.69008946 C-20.32052728 37.74982731 -24.37317923 41.80012101 -28.42743087 45.84892297 C-32.79691592 50.21574202 -37.15779519 54.59114071 -41.51982117 58.96540833 C-50.06775418 67.53441474 -58.62393319 76.09513294 -67.18330726 84.65270653 C-74.13822694 91.60625348 -81.09054728 98.56238948 -88.04103851 105.52036285 C-89.03939719 106.51977186 -90.03775723 107.51917951 -91.03611861 108.51858582 C-91.77948124 109.26272746 -91.77948124 109.26272746 -92.5378613 110.02190227 C-93.28257733 110.76739852 -93.28257733 110.76739852 -94.04233813 111.52795529 C-94.78829073 112.27469387 -94.78829073 112.27469387 -95.54931307 113.03651808 C-109.53688139 127.03867029 -123.52759898 141.03766945 -137.52476883 155.03022385 C-138.31632863 155.82152572 -138.31632863 155.82152572 -139.12387954 156.62881348 C-141.79855754 159.30260258 -144.47326348 161.97636371 -147.14797917 164.6501151 C-147.67919323 165.18113813 -148.21040729 165.71216116 -148.75771875 166.25927579 C-149.83196254 167.33313249 -150.90620795 168.40698758 -151.98045498 169.48084104 C-168.70019205 186.19460648 -185.40918524 202.9190466 -202.10986328 219.65185547 C-220.86983447 238.44788871 -239.63813988 257.23554386 -258.41862655 276.01108003 C-260.42034355 278.01232704 -262.42203068 280.01360392 -264.42369843 282.01490021 C-264.91657168 282.50767108 -265.40944494 283.00044195 -265.91725376 283.50814528 C-273.3625664 290.9522623 -280.80126846 298.40294256 -288.23664093 305.856987 C-296.69033137 314.33189625 -305.1528672 322.79785721 -313.62664542 331.25269189 C-317.95175396 335.56861904 -322.27269533 339.88851507 -326.58291435 344.21931648 C-330.52622524 348.18124942 -334.48082499 352.13153157 -338.44486496 356.07272127 C-339.87927399 357.50292245 -341.30944537 358.93738857 -342.73498157 360.37643382 C-344.66924374 362.32777672 -346.61818769 364.26316286 -348.57164383 366.19526291 C-349.12514851 366.76104512 -349.6786532 367.32682733 -350.24893075 367.90975446 C-353.87500551 371.45317841 -356.86496797 373.10107443 -362 374 C-365.3125 373.0625 -365.3125 373.0625 -368 371 C-369.5625 367.6875 -369.5625 367.6875 -370 364 C-367.99454632 358.83641369 -364.92347585 355.49955251 -361.06104183 351.68910503 C-360.45543009 351.07973216 -359.84981834 350.47035928 -359.22585472 349.84252056 C-357.19082628 347.79853535 -355.14526043 345.76543592 -353.09959412 343.73210144 C-351.62523712 342.2557204 -350.15153793 340.77868221 -348.67844158 339.30104333 C-344.62545218 335.23939368 -340.56314518 331.18717582 -336.4992739 327.13641798 C-332.11960709 322.76763516 -327.74858596 318.39021736 -323.37649536 314.01385498 C-315.79896169 306.43133418 -308.21595261 298.85432965 -300.6289959 291.28124046 C-292.67085189 283.33762545 -284.71560128 275.3911321 -276.76426888 267.44069862 C-276.26983954 266.94633039 -275.77541021 266.45196215 -275.26599817 265.94261305 C-273.25905101 263.93589541 -271.25212502 261.92915659 -269.24522689 259.92238991 C-250.95536821 241.63374263 -232.65827617 223.3523498 -214.35668945 205.07543945 C-197.07062336 187.81267576 -179.78913209 170.54535003 -162.51293945 153.27270508 C-161.9805222 152.74039934 -161.44810494 152.2080936 -160.89955383 151.65965738 C-158.75309638 149.51364878 -156.60664237 147.36763674 -154.46018854 145.22162452 C-153.3905664 144.15222276 -152.32094381 143.08282146 -151.25132075 142.01342061 C-150.18435789 140.9466791 -149.11739632 139.8799363 -148.05043604 138.8131922 C-131.07489655 121.84116492 -114.09538427 104.87311283 -97.11518512 87.90574762 C-92.14069712 82.93498137 -87.16643804 77.96398635 -82.19267917 72.99249053 C-71.73268904 62.53730436 -61.27150231 52.0833237 -50.8058477 41.63380673 C-46.47634869 37.31093164 -42.14763921 32.98727388 -37.82105827 28.66147804 C-33.86641021 24.70761321 -29.90947737 20.75605052 -25.95064057 16.80637983 C-24.51309119 15.37135192 -23.07639427 13.93546947 -21.64060252 12.498683 C-19.70038823 10.55738351 -17.75717308 8.61914036 -15.81311703 6.68168926 C-15.24647727 6.11328004 -14.67983752 5.54487081 -14.09602687 4.95923707 C-9.56132529 0.45106836 -6.48023121 -0.92391415 0 0 Z " fill="#abb2bf" transform="translate(393,24)"/>
<path d="M0 0 C2.85695513 1.71417308 3.01592889 3.05628208 3.9375 6.3125 C4.02878771 11.69847477 1.54549154 14.31771389 -1.9586606 18.1320256 C-4.49464641 20.75106027 -7.06740535 23.32896516 -9.65240479 25.89964294 C-10.6529071 26.90173463 -11.65297139 27.90426379 -12.65263629 28.90719086 C-15.39425495 31.65521061 -18.14206028 34.3969697 -20.89093661 37.1377269 C-23.85716396 40.09736713 -26.81761324 43.06277729 -29.77879333 46.02746582 C-35.5787432 51.83245478 -41.38401612 57.63209218 -47.1911107 63.42993288 C-53.95635233 70.18478191 -60.71635507 76.94486369 -67.47615895 83.70515371 C-79.5410298 95.77052514 -91.61072395 107.83106003 -103.68310547 119.88891602 C-115.39083001 131.58256111 -127.09505482 143.27969428 -138.79541016 154.98071289 C-139.51567596 155.70101865 -140.23594177 156.42132442 -140.97803381 157.16345762 C-141.69706679 157.88253096 -142.41609977 158.60160429 -143.15692163 159.34246773 C-156.48354866 172.66978536 -169.81346659 185.99380715 -183.14491196 199.31630484 C-187.85529581 204.02367664 -192.56470668 208.7320205 -197.27381134 213.44067192 C-203.0169295 219.18310658 -208.76194353 224.92363703 -214.50930104 230.66182881 C-217.44009142 233.58801477 -220.37010632 236.51496558 -223.2979641 239.44408607 C-225.98164959 242.12887281 -228.66765512 244.81131608 -231.35548255 247.491956 C-232.78061223 248.91443483 -234.20332466 250.33933416 -235.62593102 251.76433653 C-240.08449281 256.20618015 -244.59651922 260.5134705 -249.38282371 264.60176045 C-251.40349317 266.34886742 -253.26516081 268.21344255 -255.10546875 270.1484375 C-255.77900391 270.84324219 -256.45253906 271.53804688 -257.14648438 272.25390625 C-258.52451616 273.68600435 -259.89679211 275.12366016 -261.26367188 276.56640625 C-261.93333984 277.25347656 -262.60300781 277.94054687 -263.29296875 278.6484375 C-263.8861792 279.26895996 -264.47938965 279.88948242 -265.09057617 280.52880859 C-267.4074531 282.31393842 -269.10945212 282.70580994 -272 283 C-274.96434289 282.22362448 -276.60867152 281.37783439 -278.8125 279.25 C-280.49528285 276.06156933 -280.68861443 274.58079506 -280 271 C-274.97800944 264.02951018 -268.25518708 258.11155555 -262.19390869 252.06019592 C-261.10497401 250.96939016 -260.01625489 249.87836916 -258.92773128 248.78715318 C-255.95296521 245.80630028 -252.97511342 242.82854721 -249.99671149 239.85132778 C-246.7788801 236.63370116 -243.56391659 233.41321109 -240.34855652 230.19311523 C-234.05745221 223.89372298 -227.76358926 217.59709405 -221.46861896 211.3015653 C-216.35463571 206.1871064 -211.24144401 201.07185749 -206.12880707 195.95605278 C-191.63387832 181.45232569 -177.13686318 166.9506887 -162.63715926 152.45173544 C-161.85632541 151.67094156 -161.07549157 150.89014767 -160.27099609 150.08569336 C-159.48920985 149.303948 -158.70742361 148.52220263 -157.90194687 147.71676802 C-145.20977663 135.02500492 -132.52261181 122.32825119 -119.83768752 109.62924642 C-106.81330859 96.5905241 -93.7852256 83.55551306 -80.75324035 70.52439302 C-73.43638148 63.20786664 -66.12108155 55.88979686 -58.80976105 48.56773567 C-52.59071326 42.3396101 -46.36825021 36.11492238 -40.14125666 29.89474071 C-36.96267939 26.7194413 -33.78576356 23.54252388 -30.61314201 20.36127281 C-27.71237234 17.45269384 -24.80707811 14.5487177 -21.89801714 11.64843207 C-20.84326663 10.59522882 -19.79022391 9.54031209 -18.73901704 8.48357189 C-17.31625858 7.05381797 -15.88679702 5.63074351 -14.45695877 4.2080698 C-13.66296087 3.41385453 -12.86896296 2.61963925 -12.05090451 1.80135685 C-8.10258441 -1.66654398 -4.90641069 -1.05137372 0 0 Z " fill="#abb2bf" transform="translate(485,206)"/>
<path d="M0 0 C1.93554688 0.47338867 1.93554688 0.47338867 4.49804688 2.59838867 C6.26587758 6.13405008 6.77588705 7.57726605 5.93554688 11.47338867 C0.88042393 18.42032425 -5.78157585 24.3523611 -11.83016968 30.41992188 C-12.91481292 31.51145648 -13.99925636 32.60318965 -15.08351862 33.69510269 C-18.04669477 36.67788221 -21.01294043 39.65759214 -23.97978735 42.63671994 C-26.52795014 45.19620662 -29.07431085 47.75748251 -31.6206889 50.3187446 C-55.73534348 74.57384446 -79.88742703 98.79180746 -104.0458889 123.00326538 C-107.18527475 126.14965963 -110.32460116 129.29611316 -113.46386719 132.44262695 C-114.24407957 133.22463463 -115.02429195 134.0066423 -115.82814713 134.81234717 C-128.48725041 147.50156513 -141.12889646 160.20803418 -153.76384883 172.92129505 C-166.74140129 185.97861233 -179.73586507 199.01891121 -192.74668181 212.04308414 C-200.04954478 219.35436049 -207.34452781 226.67314972 -214.62031174 234.01138306 C-220.81091586 240.25509606 -227.01642484 246.48348538 -233.2421882 252.69214934 C-236.41842091 255.86061887 -239.58684875 259.03599191 -242.73607826 262.23132133 C-245.61864406 265.15575099 -248.52116983 268.05868767 -251.44104262 270.9458555 C-252.49396289 271.99427347 -253.53930239 273.05037137 -254.57613699 274.11469996 C-263.29539621 283.05119741 -263.29539621 283.05119741 -269.09693336 283.19952393 C-272.01279404 282.9106448 -273.06494217 282.47305856 -275.56445312 280.78588867 C-277.28427107 278.13450267 -277.98897845 276.64332511 -278.06445312 273.47338867 C-276.24319409 269.2291114 -274.16228352 266.19664045 -270.90701771 262.94401646 C-269.6305356 261.65764958 -269.6305356 261.65764958 -268.32826596 260.34529549 C-267.39307006 259.41815599 -266.45787416 258.49101649 -265.49433899 257.53578186 C-264.49036096 256.52977852 -263.487041 255.52311806 -262.48432225 254.51585954 C-259.73127461 251.75417143 -256.96896553 249.00191345 -254.20503914 246.25111878 C-251.22403334 243.28101651 -248.2516968 240.30226046 -245.27827454 237.3245697 C-239.45281139 231.49347288 -233.61940602 225.67038408 -227.78332911 219.84991223 C-220.98489441 213.06902036 -214.19452923 206.28007172 -207.40453305 199.49073177 C-195.28559894 187.37348593 -183.1596161 175.26331875 -171.02954102 163.15722656 C-159.26531426 151.41624246 -147.50562834 139.6707365 -135.7512207 127.91992188 C-135.02770518 127.19662912 -134.30418965 126.47333636 -133.55874941 125.72812564 C-132.10116279 124.27098162 -130.64357645 122.81383731 -129.1859904 121.3566927 C-128.46692891 120.63785077 -127.74786742 119.91900884 -127.00701618 119.17838383 C-125.931111 118.10280263 -125.931111 118.10280263 -124.83347036 117.00549251 C-113.6255031 105.8012305 -102.41370958 94.60079778 -91.2013917 83.40088974 C-87.14116271 79.34508972 -83.08142789 75.28879581 -79.02203689 71.23215706 C-72.57976185 64.79432318 -66.13581153 58.35817585 -59.68849549 51.92539007 C-56.74355354 48.98703508 -53.79936865 46.04793289 -50.85732269 43.10667801 C-48.16064248 40.41078913 -45.46164579 37.71724166 -42.76082566 35.02550047 C-41.32870262 33.59704464 -39.89897748 32.16618599 -38.46935731 30.73522526 C-33.9982251 26.28397005 -29.4751033 21.96665713 -24.6738593 17.87184328 C-22.6717943 16.13219727 -20.874496 14.25897016 -19.09960938 12.28979492 C-18.44412109 11.59047852 -17.78863281 10.89116211 -17.11328125 10.1706543 C-15.77715849 8.73468363 -14.4569728 7.2837347 -13.15234375 5.8190918 C-8.92173644 1.37259481 -6.22123629 -0.37001856 0 0 Z " fill="#abb2bf" transform="translate(301.064453125,23.526611328125)"/>
<path d="M0 0 C2.40887363 2.32857784 3.80787201 4.63776015 4 8 C1.93003211 14.20531647 -1.34996495 17.92151826 -5.95733643 22.47200012 C-6.6695824 23.19119163 -7.38182838 23.91038313 -8.11565757 24.65136832 C-10.49899223 27.05296393 -12.89633604 29.44005411 -15.29394531 31.82739258 C-17.00797 33.54847604 -18.72115009 35.27040097 -20.43354797 36.99310303 C-24.600656 41.18038052 -28.77711019 45.35818623 -32.95838055 49.53131006 C-36.35692997 52.92355318 -39.75173184 56.31950415 -43.14391327 59.71811485 C-43.62717396 60.20227719 -44.11043464 60.68643954 -44.60833959 61.18527346 C-45.59013552 62.16892063 -46.57192578 63.15257345 -47.55371043 64.13623186 C-56.75440255 73.35349154 -65.96769008 82.55807914 -75.18509027 91.75862613 C-83.61500043 100.17383517 -92.03015077 108.60362571 -100.43828335 117.04058937 C-109.07684317 125.70854898 -117.72457919 134.3672501 -126.38262439 143.0157482 C-127.36203816 143.99413944 -128.34143797 144.97254464 -129.32082367 145.95096397 C-129.80267302 146.43233693 -130.28452237 146.91370989 -130.78097321 147.40966991 C-134.17288163 150.79941525 -137.55877091 154.19510173 -140.94229889 157.59321022 C-145.49748974 162.16775671 -150.06569411 166.72903885 -154.64287376 171.28158569 C-156.32136122 172.95505641 -157.99559253 174.63280845 -159.66523933 176.31509972 C-161.94370602 178.60945291 -164.2370012 180.88787823 -166.534729 183.16291809 C-167.52244856 184.16839124 -167.52244856 184.16839124 -168.53012204 185.19417697 C-172.51019179 189.09471953 -175.43620449 191.13744026 -181 192 C-184.2745581 190.88788593 -186.23799005 189.92766429 -188.4375 187.25 C-189.30813875 183.76744501 -188.8794842 181.49866354 -188 178 C-186.02323321 175.15729211 -183.61427127 172.82136322 -181.1423645 170.40737915 C-180.05394943 169.30915756 -180.05394943 169.30915756 -178.94354618 168.18874967 C-176.50783417 165.73846857 -174.05127159 163.31023428 -171.59423828 160.88134766 C-169.8440108 159.12953856 -168.09508973 157.37642338 -166.34738159 155.62210083 C-162.08986265 151.35537428 -157.81869773 147.10276174 -153.54100241 142.85629757 C-148.56139993 137.91178411 -143.59796198 132.95117583 -138.63522159 127.98974793 C-129.78210053 119.14000183 -120.91493982 110.30445948 -112.03955078 101.47705078 C-103.42382445 92.90786742 -94.81726637 84.32961989 -86.22119141 75.74072266 C-85.69146513 75.21144191 -85.16173885 74.68216117 -84.61596026 74.13684161 C-83.54884649 73.07061304 -82.48173331 72.0043839 -81.41462069 70.93815418 C-80.88824281 70.41221544 -80.36186493 69.88627669 -79.81953621 69.34440041 C-79.29450449 68.81980066 -78.76947278 68.29520092 -78.22853101 67.75470421 C-70.03958092 59.57315194 -61.84297961 51.3992677 -53.6453192 43.22644419 C-50.67251055 40.26250994 -47.70070243 37.29757674 -44.72958149 34.33195074 C-39.57862865 29.19068264 -34.42246224 24.0547175 -29.2604866 18.92451096 C-27.54425915 17.21734748 -25.82972646 15.50847838 -24.11698151 13.79782104 C-21.78645465 11.47077259 -19.44990319 9.14995232 -17.11160278 6.83071899 C-16.42843463 6.14581788 -15.74526648 5.46091676 -15.04139626 4.75526106 C-14.4159954 4.13754249 -13.79059454 3.51982393 -13.14624214 2.88338661 C-12.60720163 2.34683909 -12.06816111 1.81029157 -11.51278603 1.25748503 C-7.84868902 -1.78825115 -4.3571024 -1.0114702 0 0 Z " fill="#abb2bf" transform="translate(485,297)"/>
<path d="M0 0 C2.4375 1.0625 2.4375 1.0625 4 3 C5 6.3125 5 6.3125 5 10 C2.08550549 15.1812911 -1.85013906 19.13961008 -6.03962708 23.31378174 C-6.74864392 24.02803527 -7.45766077 24.74228879 -8.18816298 25.47818637 C-10.55925717 27.86425241 -12.93741703 30.24314496 -15.31567383 32.62207031 C-17.01956328 34.33358288 -18.72304956 36.04549692 -20.42616272 37.75778198 C-25.04935396 42.40290421 -29.67908172 47.04146447 -34.31071687 51.67816257 C-37.20388502 54.57459277 -40.09541823 57.47265128 -42.98660851 60.3710556 C-50.99650336 68.4005043 -59.00796566 76.42837943 -67.02618885 84.44951248 C-67.79488326 85.21848825 -67.79488326 85.21848825 -68.57910685 86.00299887 C-69.61791051 87.04216877 -70.65671544 88.0813374 -71.69552163 89.12050477 C-72.46897646 89.89423381 -72.46897646 89.89423381 -73.25805664 90.68359375 C-73.77432543 91.20004309 -74.29059422 91.71649243 -74.82250752 92.24859175 C-83.19479113 100.62441998 -91.55525997 109.01193464 -99.91061345 117.40464845 C-108.49510807 126.02721959 -117.08892432 134.64040536 -125.69232768 143.24411082 C-130.52031131 148.07267896 -135.34426613 152.90512255 -140.15806007 157.74784088 C-144.68312032 162.29996636 -149.22092168 166.8391268 -153.76756859 171.36969376 C-155.43478642 173.03509183 -157.09773142 174.70477996 -158.756073 176.37901688 C-161.01915261 178.6624617 -163.29707968 180.92998509 -165.579422 183.19415283 C-166.23332863 183.86125943 -166.88723527 184.52836604 -167.56095725 185.21568799 C-171.53358157 189.1163408 -174.44912813 191.11678696 -180 192 C-183.3125 191.0625 -183.3125 191.0625 -186 189 C-187.5625 185.6875 -187.5625 185.6875 -188 182 C-185.89840359 176.37820236 -182.18965201 172.77195031 -178.00901794 168.64152527 C-176.93535724 167.5629613 -176.93535724 167.5629613 -175.84000641 166.46260816 C-173.44265006 164.05797591 -171.03473419 161.66420839 -168.62670898 159.27026367 C-166.90475819 157.54752196 -165.18346068 155.82412706 -163.46276855 154.10012817 C-159.27511419 149.9078725 -155.08056701 145.7225927 -150.88281088 141.54045846 C-145.99594559 136.6711445 -141.11716074 131.7937678 -136.2387364 126.91599957 C-127.53704484 118.21599501 -118.8283155 109.52306998 -110.11547852 100.83422852 C-101.65689742 92.39892587 -93.20289409 83.95907195 -84.75415039 75.51391602 C-84.23334514 74.99333353 -83.71253989 74.47275105 -83.17595267 73.93639334 C-82.12681127 72.88769455 -81.07767017 71.83899546 -80.02852935 70.7902961 C-79.51102231 70.27300862 -78.99351527 69.75572115 -78.46032619 69.22275829 C-77.68605211 68.44880819 -77.68605211 68.44880819 -76.89613613 67.65922273 C-68.8476558 59.61444033 -60.79534762 51.57349006 -52.74250857 43.53307107 C-49.82185615 40.6168568 -46.90170449 37.70014218 -43.98189717 34.78308179 C-38.92117369 29.7271985 -33.85783199 24.67395206 -28.79158783 19.62360001 C-27.1064381 17.94298446 -25.42213902 16.2615155 -23.73873329 14.57915306 C-21.44946552 12.29162284 -19.15716188 10.00718045 -16.86399841 7.72355652 C-16.1909545 7.04964613 -15.51791059 6.37573573 -14.82447141 5.68140382 C-14.21274519 5.07351873 -13.60101896 4.46563365 -12.97075558 3.83932781 C-12.44153277 3.31135151 -11.91230997 2.7833752 -11.36705011 2.23939961 C-8.06794048 -0.75165036 -4.20983063 -0.44182381 0 0 Z " fill="#abb2bf" transform="translate(211,24)"/>
<path d="M0 0 C2.0625 2.6875 2.0625 2.6875 3 6 C2.00647215 13.05764343 -1.9804574 16.69178639 -6.91870117 21.56567383 C-7.73680267 22.39253693 -8.55490417 23.21940002 -9.39779663 24.07131958 C-12.10042606 26.79592122 -14.820896 29.50186492 -17.54296875 32.20703125 C-19.42979866 34.09722984 -21.31587774 35.98815461 -23.20124817 37.87980652 C-27.15264338 41.84028493 -31.1144331 45.79013506 -35.08227539 49.73413086 C-39.6621467 54.28679342 -44.22372697 58.8571888 -48.77622432 63.43721181 C-52.69325086 67.37696638 -56.61998509 71.30684571 -60.55492002 75.22871417 C-62.90162404 77.56764392 -65.24385157 79.91073195 -67.57936668 82.26084328 C-70.1857745 84.87995701 -72.80768904 87.48249404 -75.43432617 90.08129883 C-76.20082993 90.85792374 -76.96733368 91.63454865 -77.75706482 92.43470764 C-81.98961912 96.58460179 -85.04208109 99.18329741 -91 100 C-94.30734791 98.87674977 -96.26131569 97.93138456 -98.4375 95.1875 C-99.27792279 91.91918916 -99.06217131 90.24899459 -98 87 C-93.57235058 81.17792988 -88.19156236 76.03860154 -83.03271484 70.87158203 C-82.26919205 70.10309433 -81.50566925 69.33460663 -80.7190094 68.54283142 C-78.21906608 66.02840642 -75.71535489 63.5177808 -73.2109375 61.0078125 C-71.92256926 59.71520319 -71.92256926 59.71520319 -70.60817337 58.39648056 C-66.07286831 53.8462484 -61.53474422 49.29885091 -56.99414062 44.75390625 C-52.30546673 40.05972263 -47.62615915 35.35631598 -42.94893456 30.65072823 C-39.34575761 27.02895322 -35.73591519 23.41387863 -32.1241951 19.80062485 C-30.39533285 18.06873481 -28.66897337 16.33434264 -26.94517136 14.59741592 C-24.53995068 12.17517684 -22.12548554 9.76253877 -19.70849609 7.35205078 C-18.64389412 6.27362663 -18.64389412 6.27362663 -17.55778503 5.17341614 C-11.86045792 -0.47594353 -8.05855095 -3.5815782 0 0 Z " fill="#abb2bf" transform="translate(486,389)"/>
<path d="M0 0 C2.75171298 1.90503206 3.71801879 3.2856476 4.9375 6.375 C5.06334438 11.66046387 1.96945901 15.21719596 -1.50262451 18.89703369 C-2.97418687 20.39242882 -4.45405386 21.87967967 -5.94042969 23.36035156 C-6.74892365 24.17731506 -7.5574176 24.99427856 -8.39041138 25.83599854 C-11.05978621 28.52873375 -13.74018169 31.21016127 -16.421875 33.890625 C-18.28441383 35.76026507 -20.14665326 37.63020345 -22.00860596 39.50042725 C-25.91013831 43.41654553 -29.8186188 47.32563588 -33.73046875 51.23144531 C-38.24551271 55.73984525 -42.74558572 60.2628077 -47.2387321 64.79302239 C-51.57123977 69.15996441 -55.91756997 73.51289131 -60.26938629 77.86058807 C-62.11531695 79.70821229 -63.95726456 81.55982481 -65.79512787 83.41547394 C-68.36566396 86.00814025 -70.95157959 88.58444017 -73.54199219 91.15722656 C-74.29757416 91.92607178 -75.05315613 92.69491699 -75.83163452 93.48706055 C-80.04493674 97.63404111 -83.06843581 100.15790583 -89 101 C-92.3125 100.0625 -92.3125 100.0625 -95 98 C-96.75621512 94.27682394 -97.43734756 92.21871054 -96.02857971 88.29304504 C-93.2477168 83.77879955 -89.73916328 80.33782326 -85.98022461 76.6237793 C-84.75543648 75.39592461 -84.75543648 75.39592461 -83.50590515 74.14326477 C-80.8119143 71.44627182 -78.10735023 68.7601596 -75.40234375 66.07421875 C-73.52753655 64.20246961 -71.65327754 62.33018641 -69.77967834 60.45722961 C-65.85641349 56.53765032 -61.92756744 52.62374013 -57.99487305 48.71362305 C-52.94457176 43.692256 -47.9036249 38.66160503 -42.86554623 33.62797832 C-38.99830708 29.76428849 -35.12764529 25.90403711 -31.25622749 22.04453468 C-29.39574886 20.18976656 -27.53574662 18.33452044 -25.67622185 16.47879601 C-23.08355378 13.8929725 -20.48752932 11.31057051 -17.89038086 8.72924805 C-17.11682251 7.95680756 -16.34326416 7.18436707 -15.54626465 6.38851929 C-14.84106186 5.68902664 -14.13585907 4.989534 -13.4092865 4.2688446 C-12.48872923 3.35274933 -12.48872923 3.35274933 -11.54957485 2.41814709 C-8.18655099 -0.65964066 -4.34611132 -0.61964359 0 0 Z " fill="#abb2bf" transform="translate(120,24)"/>
</svg>
